<svg xmlns="http://www.w3.org/2000/svg" width="18" height="15.938" viewBox="0 0 18 15.938">
  <g id="Group_30" data-name="Group 30" transform="translate(-1113 -564.031)">
    <path id="Path_60" data-name="Path 60" d="M1130.929,570.947a7.965,7.965,0,0,0-15.862,1.1l-1.312-1.274-.755.776,2.67,2.591,2.59-2.67-.776-.753-1.336,1.375a6.879,6.879,0,1,1,2.7,5.38l-.657.859a7.907,7.907,0,0,0,4.826,1.642,8.062,8.062,0,0,0,1.07-.071,7.97,7.97,0,0,0,6.846-8.951Z" fill="#508ff4"/>
    <path id="Path_61" data-name="Path 61" d="M1122.014,567v6H1126v-1h-3v-5Z" fill="#508ff4"/>
  </g>
</svg>
