<svg xmlns="http://www.w3.org/2000/svg" width="16" height="16" viewBox="0 0 16 16">
  <g id="price" transform="translate(0 -53.064)">
    <path id="Path_408" data-name="Path 408" d="M4.316,68.6a1.051,1.051,0,0,0,1.738,0L12,61a2.359,2.359,0,0,0,.388-.756,5.005,5.005,0,0,0,1.692.323A1.719,1.719,0,0,0,15.91,59.42a2.643,2.643,0,0,0-.654-2.462l-.03-.038a7.182,7.182,0,0,0-2.264-1.84c-.168-.088-.335-.168-.5-.244v-.013a1.568,1.568,0,0,0-1.327-1.7l-3.565-.063a1.565,1.565,0,0,0-1.258.655L.36,61.328a1.9,1.9,0,0,0,0,2.222ZM8.9,55.786a.87.87,0,0,1,1.439,0,1.534,1.534,0,0,1,.286,1.109,6.808,6.808,0,0,0,1.357.945c.177.092.348.176.513.248l-.02-1.832.085.046a6.237,6.237,0,0,1,1.929,1.554l.02.025c.427.559.473.916.437,1.025-.112.34-1.311.643-3.131-.328a6.788,6.788,0,0,1-1.436-1.021c-.013.021-.03.042-.043.063a.87.87,0,0,1-1.439,0A1.567,1.567,0,0,1,8.9,55.786Z" transform="translate(0)" fill="#c1c8d8"/>
  </g>
</svg>
