<?xml version="1.0" encoding="utf-8"?>
<!-- Generator: Adobe Illustrator 22.0.0, SVG Export Plug-In . SVG Version: 6.00 Build 0)  -->
<svg version="1.1" id="Layer_1" xmlns="http://www.w3.org/2000/svg" xmlns:xlink="http://www.w3.org/1999/xlink" x="0px" y="0px"
	 viewBox="0 0 175 48.9" style="enable-background:new 0 0 175 48.9;" xml:space="preserve">
<style type="text/css">
	.st0{enable-background:new    ;}
	.st1{fill:#151A26;}
	.st2{fill:#3C3F42;}
	.st3{fill:url(#Path_1_1_);}
	.st4{fill:#E6E6E6;}
	.st5{fill:#D8D8D8;}
</style>
<g>
	<g class="st0">
		<path class="st1" d="M64,22.5h4.6c0.1,1.9,1.4,3.6,5,3.6c3.2,0,4.5-0.9,4.5-2.7c0-4.2-13.7-0.6-13.7-9.9c0-4.3,3.2-6.7,9-6.7
			c6.2,0,8.6,3.1,8.7,7.3h-4.5c-0.2-1.7-1.2-3.5-4.5-3.5c-2.7,0-4.2,0.9-4.2,2.7c0,5.1,13.7,1.2,13.7,10c0,4.5-3,6.6-9.2,6.6
			C66.5,29.9,64.2,26.8,64,22.5z"/>
		<path class="st1" d="M83.4,11v-4h20v4h-7.8v18.5h-4.5V11H83.4z"/>
		<path class="st1" d="M105.6,7.1h9c6,0,9.2,1.9,9.2,7.2c0,3.8-1.7,5.9-4.7,6.8c0.7,0.5,1.3,1.1,1.8,1.8l3.8,6.5h-4.9l-3.1-5.4
			c-1.2-2.1-2.9-2.4-5.6-2.4H110v7.8h-4.5V7.1z M110,17.9h4.5c2.8,0,4.6-0.9,4.6-3.5c0-2.6-1.7-3.3-4.6-3.3H110V17.9z"/>
		<path class="st1" d="M127.1,7.1h4.5v22.4h-4.5V7.1z"/>
		<path class="st1" d="M135.5,29.5V7.1h4.5v10.7l8.8-10.7h5.6l-8.9,10.4l9.8,12h-5.7l-6.9-8.7l-2.8,3.2v5.5H135.5z"/>
		<path class="st1" d="M173.9,7.1v4h-11.8v5.3h9.7v3.8h-9.7v5.3h11.8v4h-16.3V7.1H173.9z"/>
	</g>
	<g class="st0">
		<path class="st2" d="M66.5,40.9c0-2.7,1.5-3.9,3.6-3.9c1.8,0,3.1,0.9,3.4,2.8h-1.6c-0.2-1-1-1.5-1.8-1.5c-1.2,0-2,0.7-2,2.5
			c0,1.8,0.9,2.5,2,2.5c0.9,0,1.6-0.5,1.8-1.5h1.6c-0.3,1.9-1.6,2.8-3.4,2.8C68,44.7,66.5,43.6,66.5,40.9z"/>
		<path class="st2" d="M75,40.9c0-2.7,1.5-3.9,3.6-3.9c2.1,0,3.6,1.2,3.6,3.9c0,2.7-1.5,3.9-3.6,3.9C76.5,44.7,75,43.6,75,40.9z
			 M78.6,43.4c1.2,0,2.1-0.7,2.1-2.5c0-1.8-0.9-2.5-2.1-2.5c-1.2,0-2.1,0.7-2.1,2.5C76.5,42.7,77.5,43.4,78.6,43.4z"/>
		<path class="st2" d="M84.1,41.2v-4.1h1.5v4.1c0,1.5,0.6,2.2,1.6,2.2s1.7-0.7,1.7-2.2v-4.1h1.5v4.1c0,2.7-1.3,3.5-3.1,3.5
			S84.1,43.9,84.1,41.2z"/>
		<path class="st2" d="M92.6,37.2h3c2,0,3.1,0.6,3.1,2.4c0,1.3-0.5,2-1.6,2.3c0.2,0.2,0.4,0.4,0.6,0.6l1.3,2.2h-1.6l-1-1.8
			c-0.4-0.7-1-0.8-1.9-0.8h-0.3v2.6h-1.5V37.2z M94.1,40.8h1.5c0.9,0,1.5-0.3,1.5-1.2c0-0.9-0.6-1.1-1.5-1.1h-1.5V40.8z"/>
		<path class="st2" d="M100.6,37.2h1.5v7.5h-1.5V37.2z"/>
		<path class="st2" d="M109.7,37.2v1.3h-3.9v1.8h3.2v1.3h-3.2v1.8h3.9v1.3h-5.4v-7.5H109.7z"/>
		<path class="st2" d="M111.5,37.2h3c2,0,3.1,0.6,3.1,2.4c0,1.3-0.5,2-1.6,2.3c0.2,0.2,0.4,0.4,0.6,0.6l1.3,2.2h-1.6l-1-1.8
			c-0.4-0.7-1-0.8-1.9-0.8H113v2.6h-1.5V37.2z M113,40.8h1.5c0.9,0,1.5-0.3,1.5-1.2c0-0.9-0.6-1.1-1.5-1.1H113V40.8z"/>
		<path class="st2" d="M123,42.3h1.5c0,0.6,0.5,1.2,1.7,1.2c1.1,0,1.5-0.3,1.5-0.9c0-1.4-4.6-0.2-4.6-3.3c0-1.4,1.1-2.2,3-2.2
			c2.1,0,2.9,1,2.9,2.4h-1.5c-0.1-0.6-0.4-1.2-1.5-1.2c-0.9,0-1.4,0.3-1.4,0.9c0,1.7,4.6,0.4,4.6,3.3c0,1.5-1,2.2-3.1,2.2
			C123.8,44.7,123.1,43.7,123,42.3z"/>
		<path class="st2" d="M136.5,37.2v1.3h-3.9v1.8h3.2v1.3h-3.2v1.8h3.9v1.3h-5.4v-7.5H136.5z"/>
		<path class="st2" d="M138.3,37.2h3c2,0,3.1,0.6,3.1,2.4c0,1.3-0.5,2-1.6,2.3c0.2,0.2,0.4,0.4,0.6,0.6l1.3,2.2H143l-1-1.8
			c-0.4-0.7-1-0.8-1.9-0.8h-0.3v2.6h-1.5V37.2z M139.8,40.8h1.5c0.9,0,1.5-0.3,1.5-1.2c0-0.9-0.6-1.1-1.5-1.1h-1.5V40.8z"/>
		<path class="st2" d="M145.5,37.2h1.6l2.2,5.8l2.1-5.8h1.6l-2.8,7.5h-1.9L145.5,37.2z"/>
		<path class="st2" d="M154.6,37.2h1.5v7.5h-1.5V37.2z"/>
		<path class="st2" d="M158,40.9c0-2.7,1.5-3.9,3.6-3.9c1.8,0,3.1,0.9,3.4,2.8h-1.6c-0.2-1-1-1.5-1.8-1.5c-1.2,0-2,0.7-2,2.5
			c0,1.8,0.9,2.5,2,2.5c0.9,0,1.6-0.5,1.8-1.5h1.6c-0.3,1.9-1.6,2.8-3.4,2.8C159.5,44.7,158,43.6,158,40.9z"/>
		<path class="st2" d="M172.3,37.2v1.3h-3.9v1.8h3.2v1.3h-3.2v1.8h3.9v1.3h-5.4v-7.5H172.3z"/>
	</g>
	<g id="Group_1" transform="translate(49.543 50)">
		
			<linearGradient id="Path_1_1_" gradientUnits="userSpaceOnUse" x1="-550.8735" y1="366.3404" x2="-549.9955" y2="367.2754" gradientTransform="matrix(48.777 0 0 -48.8476 26828.8418 17892.8477)">
			<stop  offset="0" style="stop-color:#005193"/>
			<stop  offset="0" style="stop-color:#1762C9"/>
			<stop  offset="1" style="stop-color:#25ECF4"/>
		</linearGradient>
		<path id="Path_1" class="st3" d="M-0.8-49.6v48.2c0,0.2-0.1,0.3-0.3,0.3h-32.7c-0.9-0.1-1.1-0.6-1-1.7c0.8-11.5,4.1-22.1,12-30.9
			c2.7-3,6-5.5,9.6-7.4c0.1-0.1,0.2-0.3,0.1-0.4c-0.1-0.1-0.2-0.2-0.3-0.2C-31-38.6-42-27.7-49-11.4c-0.1,0.2-0.2,0.2-0.4,0.2
			c-0.1,0-0.2-0.2-0.2-0.3c0-5.8,0-11.6,0-17.5c0-0.5,0-0.9,0.1-1.4c0.1-0.4,0.1-0.9,0.2-1.3c0.8-4.3,2.8-8.3,5.8-11.5
			c2.4-2.5,5.3-4.5,8.6-5.7c0.8-0.3,1.7-0.5,2.5-0.7c0.3-0.1,0.7-0.2,1-0.2c0.4,0,0.8-0.1,1.2-0.1c1.6-0.1,3.3,0,4.9,0h5.1l10.2,0
			c0.9,0,1.7,0,2.6,0h6.2C-0.9-50-0.8-49.8-0.8-49.6C-0.8-49.7-0.8-49.7-0.8-49.6z"/>
		<path id="Path_2" class="st4" d="M-22.9-36.5l-0.3,0.3c-0.8,0.9-1.7,1.8-2.4,2.8c-3.4,4.2-6,8.9-7.8,14c-1.9,5.3-3,10.8-3.3,16.4
			c-0.1,2-0.1,2-2.2,2c-3,0-6.1,0-9.1,0c-1,0-1.3-0.3-1-1.2c3.2-15.1,11.2-26.7,25-33.9C-23.7-36.5-23.4-36.8-22.9-36.5z"/>
		<path id="Path_3" class="st5" d="M-24.1-35.2l1.1-1.2c0.1-0.1,0.1-0.2,0-0.3c-0.1-0.1-0.2-0.1-0.3,0l-1.4,0.8
			c-0.1,0.1-0.1,0.2-0.1,0.3c0,0,0,0,0,0l0.3,0.4C-24.4-35.1-24.2-35.1-24.1-35.2C-24.1-35.2-24.1-35.2-24.1-35.2z"/>
	</g>
</g>
</svg>
