<svg xmlns="http://www.w3.org/2000/svg" xmlns:xlink="http://www.w3.org/1999/xlink" width="30" height="6" viewBox="0 0 30 6">
  <defs>
    <clipPath id="clip-path">
      <rect width="30" height="6" fill="none"/>
    </clipPath>
  </defs>
  <g id="more" clip-path="url(#clip-path)">
    <path id="more-2" data-name="more" d="M-2241-2574a3,3,0,0,1,3-3,3,3,0,0,1,3,3,3,3,0,0,1-3,3A3,3,0,0,1-2241-2574Zm-12,0a3,3,0,0,1,3-3,3,3,0,0,1,3,3,3,3,0,0,1-3,3A3,3,0,0,1-2253-2574Zm-12,0a3,3,0,0,1,3-3,3,3,0,0,1,3,3,3,3,0,0,1-3,3A3,3,0,0,1-2265-2574Z" transform="translate(2265 2577)" fill="#d0dbe5"/>
  </g>
</svg>
